<svg width="21" height="20" viewBox="0 0 21 20" fill="none" xmlns="http://www.w3.org/2000/svg">
<path d="M10.5389 0.499576C5.01395 0.476947 0.521122 4.82026 0.499089 10.1996C0.481458 14.5042 3.33148 18.1664 7.29868 19.4697C7.7983 19.5634 7.98287 19.2626 7.98392 19.0041C7.98487 18.7728 7.97905 18.1598 7.97821 17.3478C5.19416 17.9237 4.61526 16.0271 4.61526 16.0271C4.16486 14.901 3.5086 14.5976 3.5086 14.5976C2.60525 13.99 3.58102 14.0064 3.58102 14.0064C4.5849 14.0783 5.10857 15.0164 5.10857 15.0164C5.99413 16.5094 7.44504 16.085 8.01772 15.8387C8.1103 15.2087 8.36956 14.7811 8.65639 14.5386C6.43657 14.2858 4.10585 13.4386 4.12114 9.7064C4.12549 8.64325 4.51655 7.77582 5.161 7.09694C5.04951 6.85031 4.71607 5.85847 5.25906 4.51914C5.25906 4.51914 6.09762 4.26153 8.00495 5.52912C8.80583 5.31597 9.65626 5.21206 10.5063 5.21058C11.3562 5.21902 12.2058 5.32989 13.0049 5.5496C14.91 4.29763 15.7465 4.5621 15.7465 4.5621C16.2785 5.90583 15.9369 6.8949 15.8359 7.14066C16.4706 7.82478 16.8546 8.69539 16.8502 9.75854C16.8349 13.5006 14.494 14.3146 12.2681 14.5451C12.6169 14.8389 12.9394 15.4375 12.9357 16.3503C12.9303 17.6539 12.9135 18.7013 12.9122 19.0177C12.9112 19.2729 13.0849 19.5784 13.5978 19.4831C17.6039 18.2207 20.4813 14.5796 20.4989 10.2815C20.521 4.90217 16.0614 0.522194 10.5389 0.499576Z" fill="#212121"/>
</svg>
