<svg width="22" height="22" viewBox="0 0 22 22" fill="none" xmlns="http://www.w3.org/2000/svg">
<path d="M14.7737 1.00894L7.27376 0.991128C3.82252 0.982933 1.01713 3.77503 1.00893 7.22627L0.991126 14.7262C0.982931 18.1775 3.77503 20.9829 7.22627 20.9911L14.7262 21.0089C18.1775 21.0171 20.9829 18.225 20.9911 14.7737L21.0089 7.27376C21.0171 3.82252 18.225 1.01713 14.7737 1.00894ZM19.1161 14.7693C19.1103 17.1818 17.1432 19.1396 14.7307 19.1339L7.23072 19.1161C4.81823 19.1103 2.86039 17.1432 2.86612 14.7307L2.88393 7.23072C2.88966 4.81823 4.85681 2.86039 7.2693 2.86612L14.7693 2.88393C17.1818 2.88966 19.1396 4.85681 19.1339 7.26931L19.1161 14.7693Z" fill="black"/>
<path d="M6.0008 10.9098C5.95098 13.6706 8.14897 15.9494 10.9098 15.9992C13.6706 16.049 15.9493 13.851 15.9992 11.0902C16.049 8.32944 13.851 6.05066 11.0902 6.00084C8.32939 5.95102 6.05062 8.14901 6.0008 10.9098ZM14.1245 11.0564C14.0934 12.7786 12.6658 14.1556 10.9436 14.1245C9.22013 14.0934 7.84441 12.6659 7.87549 10.9436C7.90657 9.22142 9.3329 7.84443 11.0564 7.87553C12.7786 7.90661 14.1556 9.33419 14.1245 11.0564Z" fill="black"/>
<path d="M6.38896 5.54094C6.3956 5.17305 6.10274 4.86942 5.73484 4.86278C5.36694 4.85614 5.06332 5.149 5.05668 5.5169C5.05004 5.8848 5.3429 6.18843 5.7108 6.19507C6.0787 6.2017 6.38232 5.90884 6.38896 5.54094Z" fill="black"/>
</svg>
