<svg width="22" height="23" viewBox="0 0 22 23" fill="none" xmlns="http://www.w3.org/2000/svg">
<path d="M18.4254 0.501103L3.57771 0.498976C1.88165 0.498733 0.501334 1.94437 0.501079 3.72119L0.498851 19.2759C0.498596 21.0527 1.8785 22.4987 3.57456 22.499L9.76792 22.4999L9.76903 14.7225L7.3081 14.7222L7.30865 10.855L9.76959 10.8553L9.76996 8.23424C9.77027 6.10175 11.4264 4.36729 13.4619 4.36758L17.1943 4.36811L17.1938 8.2353L13.4614 8.23477L13.461 10.8559L17.1934 10.8564L16.5776 14.7235L13.4604 14.723L13.4593 22.5004L18.4222 22.5011C20.1183 22.5013 21.4986 21.0557 21.4988 19.2789L21.5011 3.7242C21.5013 1.94738 20.1214 0.501347 18.4254 0.501103Z" fill="black"/>
</svg>
