<svg width="64" height="66" fill="none" xmlns="http://www.w3.org/2000/svg"><g clip-path="url(#clip0)"><path d="M37.95 58.407H20.287c-8.912 0-16.162-7.476-16.162-16.667V25.936c0-1.031.813-1.856 1.8-1.856.987 0 1.8.838 1.8 1.856v15.817c0 7.141 5.625 12.942 12.55 12.942h17.663c1 0 1.8.838 1.8 1.856.012 1.031-.788 1.856-1.788 1.856zm10.512-.825c-.75 0-1.437-.477-1.7-1.25-.325-.967.163-2.024 1.1-2.372 5.026-1.817 8.4-6.729 8.4-12.22v-1.87c0-1.03.813-1.856 1.8-1.856.988 0 1.8.838 1.8 1.857v1.869c0 7.064-4.337 13.393-10.812 15.726a1.542 1.542 0 01-.587.116z" fill="#2D527C"/><path d="M58.587 32.072H5.413c-1.987 0-3.6-1.663-3.6-3.713s1.613-3.712 3.6-3.712H58.6c1.987 0 3.6 1.663 3.6 3.712 0 2.05-1.613 3.713-3.613 3.713z" fill="#CEE8FA"/><path d="M58.587 33.928H5.413c-2.987 0-5.412-2.5-5.412-5.581 0-3.081 2.425-5.582 5.412-5.582H58.6c2.987 0 5.413 2.5 5.413 5.581 0 3.081-2.438 5.582-5.426 5.582zM5.413 26.49c-1 0-1.8.838-1.8 1.857 0 1.018.813 1.856 1.8 1.856H58.6c1 0 1.8-.838 1.8-1.857 0-1.018-.813-1.856-1.8-1.856H5.412z" fill="#2D527C"/><path d="M14.238 61.9c1.74 0 3.15-1.454 3.15-3.248 0-1.794-1.41-3.248-3.15-3.248s-3.15 1.454-3.15 3.248c0 1.794 1.41 3.249 3.15 3.249z" fill="#CEE8FA"/><path d="M14.238 63.77c-2.738 0-4.963-2.295-4.963-5.118 0-2.823 2.225-5.117 4.963-5.117 2.737 0 4.962 2.294 4.962 5.117s-2.225 5.118-4.962 5.118zm0-6.51c-.75 0-1.35.632-1.35 1.392 0 .76.612 1.392 1.35 1.392.737 0 1.35-.631 1.35-1.392 0-.76-.6-1.392-1.35-1.392z" fill="#2D527C"/><path d="M49.763 61.9c1.74 0 3.15-1.454 3.15-3.248 0-1.794-1.41-3.248-3.15-3.248s-3.15 1.454-3.15 3.248c0 1.794 1.41 3.249 3.15 3.249z" fill="#CEE8FA"/><path d="M49.763 63.77c-2.738 0-4.963-2.295-4.963-5.118 0-2.823 2.225-5.117 4.963-5.117 2.737 0 4.962 2.294 4.962 5.117s-2.237 5.118-4.962 5.118zm0-6.51c-.75 0-1.35.632-1.35 1.392 0 .76.612 1.392 1.35 1.392.737 0 1.35-.631 1.35-1.392 0-.76-.613-1.392-1.35-1.392z" fill="#2D527C"/><path d="M40.425 11.434h-16.85c-1 0-1.8-.838-1.8-1.856 0-1.019.813-1.857 1.8-1.857h16.863c1 0 1.8.838 1.8 1.857 0 1.018-.813 1.856-1.813 1.856z" fill="#F0BF5F"/><path d="M41.013 15.056c-1 0-1.8-.838-1.8-1.856V4.086c0-1.03.812-1.856 1.8-1.856.987 0 1.8.838 1.8 1.856V13.2c0 1.031-.8 1.856-1.8 1.856z" fill="#F0BF5F"/><path d="M44.263 5.956h-6.488c-1 0-1.8-.838-1.8-1.857 0-1.018.813-1.856 1.8-1.856h6.488c1 0 1.8.838 1.8 1.856 0 1.019-.813 1.857-1.8 1.857zm-21.275 9.1c-1 0-1.8-.838-1.8-1.856V4.086c0-1.03.812-1.856 1.8-1.856.987 0 1.8.838 1.8 1.856V13.2c0 1.031-.8 1.856-1.8 1.856z" fill="#F0BF5F"/><path d="M26.225 5.957h-6.488c-1 0-1.8-.837-1.8-1.856 0-1.018.813-1.856 1.8-1.856h6.488c1 0 1.8.838 1.8 1.856 0 1.019-.8 1.856-1.8 1.856zM32 19.336c-1 0-1.8-.838-1.8-1.856V9.758c0-1.031.813-1.856 1.8-1.856.987 0 1.8.838 1.8 1.856v7.722c0 1.018-.8 1.856-1.8 1.856z" fill="#F0BF5F"/><path d="M24.462 43.158H14.75c-1.225 0-2.225-1.031-2.225-2.295V24.621h14.15v16.242c0 1.276-.988 2.295-2.213 2.295z" fill="#CEE8FA"/><path d="M24.462 45.027H14.75c-2.213 0-4.025-1.856-4.025-4.15V24.633c0-1.031.813-1.856 1.8-1.856h14.15c1 0 1.8.838 1.8 1.856v16.242c.012 2.282-1.8 4.151-4.013 4.151zM14.338 26.49v14.386c0 .232.187.426.412.426h9.712a.423.423 0 00.413-.426V26.49H14.338z" fill="#2D527C"/></g><defs><clipPath id="clip0"><path fill="#fff" d="M0 0h64v66H0z"/></clipPath></defs></svg>