<svg width="67" height="66" fill="none" xmlns="http://www.w3.org/2000/svg"><path d="M40.828 49.075H11.071V35.062c0-4.962 4.082-8.984 9.12-8.984h20.637v22.997z" fill="#CEE8FA"/><path d="M40.828 50.944H11.071c-1.047 0-1.898-.838-1.898-1.87v-14.01c0-5.982 4.947-10.854 11.019-10.854h20.636c1.047 0 1.898.838 1.898 1.869v22.997c0 1.03-.851 1.869-1.898 1.869zm-27.86-3.739h25.95V27.96h-18.74c-3.978 0-7.21 3.184-7.21 7.102v12.143z" fill="#2D527C"/><path d="M60.444 34.263H6.556c-3.612 0-6.556-2.9-6.556-6.47v-5.814c0-3.558 2.944-6.459 6.556-6.459h13.57c1.047 0 1.898.838 1.898 1.87 0 1.03-.851 1.869-1.898 1.869H6.556c-1.518 0-2.761 1.224-2.761 2.72v5.813c0 1.495 1.243 2.72 2.761 2.72h53.875c1.518 0 2.761-1.224 2.761-2.72v-5.814c0-1.495-1.243-2.72-2.761-2.72H33.5c-1.047 0-1.898-.837-1.898-1.869 0-1.03.851-1.869 1.898-1.869h26.944c3.612 0 6.556 2.9 6.556 6.459v5.813c0 3.57-2.944 6.471-6.556 6.471z" fill="#F0BF5F"/><path d="M33.5 19.155a1.894 1.894 0 01-1.531-.76 1.851 1.851 0 01.392-2.617c1.793-1.315 5.51-4.77 5.51-7.077 0-2.5-1.845-4.305-4.371-4.305-2.408 0-4.37 1.933-4.37 4.305 0 1.031-.851 1.87-1.898 1.87s-1.898-.839-1.898-1.87v-.167c0-.052 0-.104.013-.155C25.504 4.073 29.103.645 33.5.645c4.659 0 8.179 3.467 8.179 8.056 0 4.821-6.32 9.565-7.054 10.093-.34.245-.732.361-1.125.361z" fill="#F0BF5F"/><path d="M47.541 61.256H22.377c-1.047 0-1.897-.838-1.897-1.869v-10.3c0-1.03.85-1.869 1.897-1.869h33.565c1.047 0 1.898.838 1.898 1.87 0 1.03-.85 1.869-1.898 1.869H24.274v6.56h23.267c1.047 0 1.898.839 1.898 1.87 0 1.031-.85 1.87-1.898 1.87z" fill="#2D527C"/><path d="M55.93 49.075V33.567c0-4.138-3.403-7.49-7.604-7.49H22.377v22.998h33.552z" fill="#CEE8FA"/><path d="M55.93 50.944H22.376c-1.047 0-1.897-.838-1.897-1.87V26.092c0-1.032.85-1.87 1.897-1.87H48.34c5.234 0 9.5 4.203 9.5 9.36v15.506c0 1.019-.864 1.857-1.91 1.857zm-31.656-3.739h29.758V33.568c0-3.094-2.552-5.607-5.692-5.607H24.274v19.245zm-1.897 18.15c-1.047 0-1.897-.838-1.897-1.869v-4.099c0-1.031.85-1.87 1.897-1.87 1.047 0 1.897.839 1.897 1.87v4.1c0 1.03-.85 1.868-1.897 1.868z" fill="#2D527C"/><path d="M55.93 65.355c-1.048 0-1.898-.837-1.898-1.869v-15.61c0-1.032.85-1.87 1.897-1.87 1.047 0 1.898.838 1.898 1.87v15.61c.013 1.032-.85 1.87-1.898 1.87zm-8.389 0c-1.047 0-1.897-.838-1.897-1.869v-4.099c0-1.031.85-1.87 1.897-1.87 1.047 0 1.898.839 1.898 1.87v4.1c0 1.03-.85 1.868-1.898 1.868zm-8.388 0c-1.047 0-1.897-.838-1.897-1.869v-4.099c0-1.031.85-1.87 1.897-1.87 1.047 0 1.898.839 1.898 1.87v4.1c0 1.03-.851 1.868-1.898 1.868zm-8.388 0c-1.047 0-1.897-.838-1.897-1.869v-4.099c0-1.031.85-1.87 1.897-1.87 1.047 0 1.898.839 1.898 1.87v4.1c0 1.03-.851 1.868-1.898 1.868z" fill="#2D527C"/></svg>