<svg width="67" height="66" fill="none" xmlns="http://www.w3.org/2000/svg"><path d="M60.51 61.553H6.49C2.919 61.553 0 58.69 0 55.159V10.841c0-3.532 2.918-6.394 6.49-6.394h35.45c1.021 0 1.846.812 1.846 1.818 0 1.005-.825 1.817-1.846 1.817H6.49c-1.544 0-2.8 1.238-2.8 2.759v44.318c0 1.521 1.256 2.759 2.8 2.759h54.02c1.544 0 2.8-1.238 2.8-2.759V10.841c0-1.521-1.257-2.759-2.8-2.759h-7.93c-1.021 0-1.846-.812-1.846-1.817 0-1.006.825-1.818 1.845-1.818h7.93c3.586 0 6.491 2.875 6.491 6.394v44.318c0 3.532-2.918 6.394-6.49 6.394z" fill="#2D527C"/><path d="M53.875 53.535H18.137c-1.02 0-1.845-.812-1.845-1.818 0-1.005.824-1.817 1.845-1.817h35.738c.706 0 1.282-.568 1.282-1.264v-31.26c0-.696-.576-1.263-1.282-1.263H18.137c-1.02 0-1.845-.812-1.845-1.817 0-1.006.824-1.818 1.845-1.818h35.738c2.748 0 4.986 2.204 4.986 4.911v31.247c0 2.694-2.238 4.899-4.986 4.899zm-43.89 0c-1.021 0-1.846-.812-1.846-1.818V14.283c0-1.006.825-1.818 1.846-1.818 1.02 0 1.845.812 1.845 1.818v37.434c.013 1.006-.825 1.818-1.845 1.818z" fill="#2D527C"/><path d="M42.673 47.502c-8.113 0-14.721-6.51-14.721-14.502 0-7.992 6.608-14.502 14.721-14.502 8.114 0 14.722 6.51 14.722 14.502 0 7.992-6.608 14.502-14.722 14.502zm0-25.369c-6.085 0-11.031 4.873-11.031 10.867 0 5.994 4.946 10.867 11.031 10.867 6.085 0 11.032-4.873 11.032-10.867 0-5.994-4.947-10.867-11.032-10.867zm0 17.428c-3.677 0-6.66-2.939-6.66-6.561s2.983-6.561 6.66-6.561 6.661 2.939 6.661 6.561-2.984 6.561-6.66 6.561zm0-9.487c-1.636 0-2.97 1.315-2.97 2.926 0 1.611 1.334 2.926 2.97 2.926 1.636 0 2.97-1.315 2.97-2.926 0-1.611-1.334-2.926-2.97-2.926z" fill="#F0BF5F"/><path d="M18.124 39.78h-8.14v5.892h8.14V39.78z" fill="#CEE8FA"/><path d="M18.137 47.49H9.985c-1.021 0-1.846-.813-1.846-1.819v-5.89c0-1.006.825-1.818 1.846-1.818h8.139c1.02 0 1.845.812 1.845 1.818v5.89c.013 1.006-.811 1.818-1.832 1.818zm-6.294-3.636h4.449v-2.256h-4.45v2.256z" fill="#2D527C"/><path d="M18.124 20.328h-8.14v5.892h8.14v-5.892z" fill="#CEE8FA"/><path d="M18.137 28.037H9.985c-1.021 0-1.846-.812-1.846-1.817v-5.892c0-1.005.825-1.817 1.846-1.817h8.139c1.02 0 1.845.812 1.845 1.817v5.892c.013 1.005-.811 1.817-1.832 1.817zm-6.294-3.635h4.449v-2.256h-4.45v2.256z" fill="#2D527C"/><path d="M33.984 43.377c-.47 0-.942-.18-1.308-.529a1.81 1.81 0 010-2.578l5.286-5.208a1.876 1.876 0 012.617 0c.72.71.72 1.87 0 2.579l-5.286 5.207a1.902 1.902 0 01-1.309.529zM46.416 31.13c-.471 0-.942-.18-1.309-.528a1.81 1.81 0 010-2.578l4.947-4.872a1.876 1.876 0 012.617 0c.72.708.72 1.869 0 2.578l-4.947 4.872a1.878 1.878 0 01-1.308.529zm-7.576-.09c-.472 0-.943-.18-1.31-.528l-4.854-4.782a1.81 1.81 0 010-2.578 1.876 1.876 0 012.617 0l4.855 4.782c.72.709.72 1.87 0 2.578a1.826 1.826 0 01-1.309.529zm12.522 12.337c-.47 0-.942-.18-1.308-.529l-4.92-4.846a1.81 1.81 0 010-2.579 1.876 1.876 0 012.617 0l4.92 4.847c.72.71.72 1.87 0 2.578a1.901 1.901 0 01-1.309.529z" fill="#F0BF5F"/></svg>