<?xml version="1.0" encoding="utf-8"?><svg viewBox="0 0 67 66" xmlns="http://www.w3.org/2000/svg" xmlns:xlink="http://www.w3.org/1999/xlink"><style>:root>svg{display:none}:root>svg:target{display:block}</style><svg fill="none" viewBox="0 0 64 66" id="bathtub" xmlns="http://www.w3.org/2000/svg"><g clip-path="url(#aclip0)"><path d="M37.95 58.407H20.287c-8.912 0-16.162-7.476-16.162-16.667V25.936c0-1.031.813-1.856 1.8-1.856.987 0 1.8.838 1.8 1.856v15.817c0 7.141 5.625 12.942 12.55 12.942h17.663c1 0 1.8.838 1.8 1.856.012 1.031-.788 1.856-1.788 1.856zM48.462 57.582c-.75 0-1.437-.477-1.7-1.25-.325-.967.163-2.024 1.1-2.372 5.026-1.817 8.4-6.729 8.4-12.22v-1.87c0-1.03.813-1.856 1.8-1.856.988 0 1.8.838 1.8 1.857v1.869c0 7.064-4.337 13.393-10.812 15.726a1.542 1.542 0 01-.587.116z" fill="#2D527C"/><path d="M58.587 32.072H5.413c-1.987 0-3.6-1.663-3.6-3.713s1.613-3.712 3.6-3.712H58.6c1.987 0 3.6 1.663 3.6 3.712 0 2.05-1.613 3.713-3.613 3.713z" fill="#CEE8FA"/><path d="M58.587 33.928H5.413c-2.987 0-5.412-2.5-5.412-5.581 0-3.081 2.425-5.582 5.412-5.582H58.6c2.987 0 5.413 2.5 5.413 5.581 0 3.081-2.438 5.582-5.426 5.582zM5.413 26.49c-1 0-1.8.838-1.8 1.857 0 1.018.813 1.856 1.8 1.856H58.6c1 0 1.8-.838 1.8-1.857 0-1.018-.813-1.856-1.8-1.856H5.412z" fill="#2D527C"/><path d="M14.238 61.9c1.74 0 3.15-1.454 3.15-3.248 0-1.794-1.41-3.248-3.15-3.248s-3.15 1.454-3.15 3.248c0 1.794 1.41 3.249 3.15 3.249z" fill="#CEE8FA"/><path d="M14.238 63.77c-2.738 0-4.963-2.295-4.963-5.118 0-2.823 2.225-5.117 4.963-5.117 2.737 0 4.962 2.294 4.962 5.117s-2.225 5.118-4.962 5.118zm0-6.51c-.75 0-1.35.632-1.35 1.392 0 .76.612 1.392 1.35 1.392.737 0 1.35-.631 1.35-1.392 0-.76-.6-1.392-1.35-1.392z" fill="#2D527C"/><path d="M49.763 61.9c1.74 0 3.15-1.454 3.15-3.248 0-1.794-1.41-3.248-3.15-3.248s-3.15 1.454-3.15 3.248c0 1.794 1.41 3.249 3.15 3.249z" fill="#CEE8FA"/><path d="M49.763 63.77c-2.738 0-4.963-2.295-4.963-5.118 0-2.823 2.225-5.117 4.963-5.117 2.737 0 4.962 2.294 4.962 5.117s-2.237 5.118-4.962 5.118zm0-6.51c-.75 0-1.35.632-1.35 1.392 0 .76.612 1.392 1.35 1.392.737 0 1.35-.631 1.35-1.392 0-.76-.613-1.392-1.35-1.392z" fill="#2D527C"/><path d="M40.425 11.434h-16.85c-1 0-1.8-.838-1.8-1.856 0-1.019.813-1.857 1.8-1.857h16.863c1 0 1.8.838 1.8 1.857 0 1.018-.813 1.856-1.813 1.856z" fill="#F0BF5F"/><path d="M41.013 15.056c-1 0-1.8-.838-1.8-1.856V4.086c0-1.03.812-1.856 1.8-1.856.987 0 1.8.838 1.8 1.856V13.2c0 1.031-.8 1.856-1.8 1.856z" fill="#F0BF5F"/><path d="M44.263 5.956h-6.488c-1 0-1.8-.838-1.8-1.857 0-1.018.813-1.856 1.8-1.856h6.488c1 0 1.8.838 1.8 1.856 0 1.019-.813 1.857-1.8 1.857zM22.988 15.056c-1 0-1.8-.838-1.8-1.856V4.086c0-1.03.812-1.856 1.8-1.856.987 0 1.8.838 1.8 1.856V13.2c0 1.031-.8 1.856-1.8 1.856z" fill="#F0BF5F"/><path d="M26.225 5.957h-6.488c-1 0-1.8-.837-1.8-1.856 0-1.018.813-1.856 1.8-1.856h6.488c1 0 1.8.838 1.8 1.856 0 1.019-.8 1.856-1.8 1.856zM32 19.336c-1 0-1.8-.838-1.8-1.856V9.758c0-1.031.813-1.856 1.8-1.856.987 0 1.8.838 1.8 1.856v7.722c0 1.018-.8 1.856-1.8 1.856z" fill="#F0BF5F"/><path d="M24.462 43.158H14.75c-1.225 0-2.225-1.031-2.225-2.295V24.621h14.15v16.242c0 1.276-.988 2.295-2.213 2.295z" fill="#CEE8FA"/><path d="M24.462 45.027H14.75c-2.213 0-4.025-1.856-4.025-4.15V24.633c0-1.031.813-1.856 1.8-1.856h14.15c1 0 1.8.838 1.8 1.856v16.242c.012 2.282-1.8 4.151-4.013 4.151zM14.338 26.49v14.386c0 .232.187.426.412.426h9.712a.423.423 0 00.413-.426V26.49H14.338z" fill="#2D527C"/></g><defs><clipPath id="aclip0"><path fill="#fff" d="M0 0h64v66H0z"/></clipPath></defs></svg><svg fill="none" viewBox="0 0 25 25" id="facebook" xmlns="http://www.w3.org/2000/svg"><g clip-path="url(#bclip0)"><path d="M12.5 0C5.598 0 0 5.598 0 12.5S5.598 25 12.5 25 25 19.402 25 12.5 19.402 0 12.5 0zm4.755 6.365h-1.739c-1.354 0-1.61.64-1.61 1.585v2.07h3.22v3.272h-3.22v8.385h-3.349v-8.385H7.745v-3.246h2.812V7.643c0-2.786 1.713-4.32 4.192-4.32h2.531l-.025 3.042z" fill="#fff"/></g><defs><clipPath id="bclip0"><path fill="#fff" d="M0 0h25v25H0z"/></clipPath></defs></svg><svg fill="none" viewBox="0 0 67 66" id="hanger" xmlns="http://www.w3.org/2000/svg"><path d="M40.828 49.075H11.071V35.062c0-4.962 4.082-8.984 9.12-8.984h20.637v22.997z" fill="#CEE8FA"/><path d="M40.828 50.944H11.071c-1.047 0-1.898-.838-1.898-1.87V35.064c0-5.982 4.947-10.854 11.019-10.854h20.636c1.047 0 1.898.838 1.898 1.869v22.997c0 1.03-.851 1.869-1.898 1.869zm-27.86-3.739h25.95V27.96h-18.74c-3.978 0-7.21 3.184-7.21 7.102v12.143z" fill="#2D527C"/><path d="M60.444 34.263H6.556c-3.612 0-6.556-2.9-6.556-6.47v-5.814c0-3.558 2.944-6.459 6.556-6.459h13.57c1.047 0 1.898.838 1.898 1.87 0 1.03-.851 1.869-1.898 1.869H6.556c-1.518 0-2.761 1.224-2.761 2.72v5.813c0 1.495 1.243 2.72 2.761 2.72h53.875c1.518 0 2.761-1.224 2.761-2.72v-5.814c0-1.495-1.243-2.72-2.761-2.72H33.5c-1.047 0-1.898-.837-1.898-1.869 0-1.03.851-1.869 1.898-1.869h26.944c3.612 0 6.556 2.9 6.556 6.459v5.813c0 3.57-2.944 6.471-6.556 6.471z" fill="#F0BF5F"/><path d="M33.5 19.155a1.894 1.894 0 01-1.531-.76 1.851 1.851 0 01.392-2.617c1.793-1.315 5.51-4.77 5.51-7.077 0-2.5-1.845-4.305-4.371-4.305-2.408 0-4.37 1.933-4.37 4.305 0 1.031-.851 1.87-1.898 1.87s-1.898-.839-1.898-1.87v-.167c0-.052 0-.104.013-.155C25.504 4.073 29.103.645 33.5.645c4.659 0 8.179 3.467 8.179 8.056 0 4.821-6.32 9.565-7.054 10.093-.34.245-.732.361-1.125.361z" fill="#F0BF5F"/><path d="M47.541 61.256H22.377c-1.047 0-1.897-.838-1.897-1.869v-10.3c0-1.03.85-1.869 1.897-1.869h33.565c1.047 0 1.898.838 1.898 1.87 0 1.03-.85 1.869-1.898 1.869H24.274v6.56h23.267c1.047 0 1.898.839 1.898 1.87 0 1.031-.85 1.87-1.898 1.87z" fill="#2D527C"/><path d="M55.93 49.075V33.567c0-4.138-3.403-7.49-7.604-7.49H22.377v22.998h33.552z" fill="#CEE8FA"/><path d="M55.93 50.944H22.376c-1.047 0-1.897-.838-1.897-1.87V26.092c0-1.032.85-1.87 1.897-1.87H48.34c5.234 0 9.5 4.203 9.5 9.36v15.506c0 1.019-.864 1.857-1.91 1.857zm-31.656-3.739h29.758V33.568c0-3.094-2.552-5.607-5.692-5.607H24.274v19.245zM22.377 65.355c-1.047 0-1.897-.838-1.897-1.869v-4.099c0-1.031.85-1.87 1.897-1.87 1.047 0 1.897.839 1.897 1.87v4.1c0 1.03-.85 1.868-1.897 1.868z" fill="#2D527C"/><path d="M55.93 65.355c-1.048 0-1.898-.837-1.898-1.869v-15.61c0-1.032.85-1.87 1.897-1.87 1.047 0 1.898.838 1.898 1.87v15.61c.013 1.032-.85 1.87-1.898 1.87zM47.541 65.355c-1.047 0-1.897-.838-1.897-1.869v-4.099c0-1.031.85-1.87 1.897-1.87 1.047 0 1.898.839 1.898 1.87v4.1c0 1.03-.85 1.868-1.898 1.868zM39.153 65.355c-1.047 0-1.897-.838-1.897-1.869v-4.099c0-1.031.85-1.87 1.897-1.87 1.047 0 1.898.839 1.898 1.87v4.1c0 1.03-.851 1.868-1.898 1.868zM30.765 65.355c-1.047 0-1.897-.838-1.897-1.869v-4.099c0-1.031.85-1.87 1.897-1.87 1.047 0 1.898.839 1.898 1.87v4.1c0 1.03-.851 1.868-1.898 1.868z" fill="#2D527C"/></svg><svg fill="none" viewBox="0 0 64 66" id="heating" xmlns="http://www.w3.org/2000/svg"><path d="M58.237 61.27h-8.8c-.937 0-1.7-.787-1.7-1.754s.763-1.753 1.7-1.753h8.8c1.313 0 2.375-1.096 2.375-2.45V23.488c0-1.354-1.062-2.45-2.375-2.45h-41c-1.312 0-2.374 1.096-2.374 2.45V55.34c0 1.353 1.062 2.449 2.375 2.449h22.874c.938 0 1.7.786 1.7 1.753 0 .967-.762 1.753-1.7 1.753H17.237c-3.174 0-5.762-2.668-5.762-5.943V23.487c0-3.274 2.588-5.943 5.763-5.943h41c3.175 0 5.762 2.668 5.762 5.943V55.34c0 3.26-2.587 5.93-5.763 5.93z" fill="#2D527C"/><path d="M23.837 53.11c-1.625 0-2.962-1.38-2.962-3.056V28.76c0-1.676 1.337-3.055 2.962-3.055 1.625 0 2.963 1.38 2.963 3.055v21.295c-.012 1.676-1.338 3.055-2.963 3.055z" fill="#CEE8FA"/><path d="M23.837 54.85c-2.562 0-4.65-2.153-4.65-4.796V28.76c0-2.643 2.088-4.795 4.65-4.795 2.563 0 4.65 2.152 4.65 4.795v21.295c0 2.643-2.087 4.796-4.65 4.796zm0-27.393c-.7 0-1.262.58-1.262 1.302v21.295c0 .722.563 1.302 1.262 1.302.7 0 1.263-.58 1.263-1.302V28.76c0-.722-.575-1.302-1.263-1.302z" fill="#F0BF5F"/><path d="M37.737 53.11c-1.625 0-2.962-1.38-2.962-3.056V28.76c0-1.676 1.337-3.055 2.962-3.055 1.625 0 2.963 1.38 2.963 3.055v21.295c0 1.676-1.325 3.055-2.963 3.055z" fill="#CEE8FA"/><path d="M37.737 54.85c-2.562 0-4.65-2.153-4.65-4.796V28.76c0-2.643 2.088-4.795 4.65-4.795 2.563 0 4.65 2.152 4.65 4.795v21.295c.013 2.643-2.075 4.796-4.65 4.796zm0-27.393c-.7 0-1.262.58-1.262 1.302v21.295c0 .722.563 1.302 1.262 1.302.7 0 1.263-.58 1.263-1.302V28.76c0-.722-.563-1.302-1.263-1.302z" fill="#F0BF5F"/><path d="M51.65 53.11c-1.625 0-2.962-1.38-2.962-3.056V28.76c0-1.676 1.337-3.055 2.962-3.055 1.625 0 2.962 1.38 2.962 3.055v21.295c0 1.676-1.337 3.055-2.962 3.055z" fill="#CEE8FA"/><path d="M51.65 54.85c-2.563 0-4.65-2.153-4.65-4.796V28.76c0-2.643 2.087-4.795 4.65-4.795s4.65 2.152 4.65 4.795v21.295c0 2.643-2.087 4.796-4.65 4.796zm0-27.393c-.7 0-1.262.58-1.262 1.302v21.295c0 .722.562 1.302 1.262 1.302s1.263-.58 1.263-1.302V28.76c0-.722-.563-1.302-1.263-1.302z" fill="#F0BF5F"/><path d="M13.175 29.713H7.287c-.937 0-1.7-.786-1.7-1.753 0-.967.763-1.753 1.7-1.753h5.888c.938 0 1.7.786 1.7 1.753 0 .967-.762 1.753-1.7 1.753zM13.175 52.594H7.287c-.937 0-1.7-.787-1.7-1.753 0-.967.763-1.754 1.7-1.754h5.888c.938 0 1.7.787 1.7 1.754 0 .966-.762 1.753-1.7 1.753z" fill="#2D527C"/><path d="M5.925 32.42c-.938 0-1.7-.786-1.7-1.753V11.975c0-.966.762-1.753 1.7-1.753.937 0 1.7.8 1.7 1.753v18.692c0 .967-.763 1.753-1.7 1.753z" fill="#F0BF5F"/><path d="M5.925 61.27c-.938 0-1.7-.787-1.7-1.754v-20.11c0-.966.762-1.752 1.7-1.752.937 0 1.7.786 1.7 1.753v20.109c0 .967-.763 1.753-1.7 1.753z" fill="#2D527C"/><path d="M10.175 6.484H1.7v9.436h8.475V6.484z" fill="#CEE8FA"/><path d="M10.162 17.66H1.7c-.938 0-1.7-.786-1.7-1.753V6.484c0-.967.762-1.753 1.7-1.753h8.475c.938 0 1.7.786 1.7 1.753v9.436c-.012.954-.775 1.74-1.713 1.74zm-6.775-3.493h5.088V8.224H3.388v5.943z" fill="#2D527C"/></svg><svg fill="none" viewBox="0 0 66 66" id="hotel-key" xmlns="http://www.w3.org/2000/svg"><g clip-path="url(#eclip0)"><path d="M38.453 18.485H19.207a1.87 1.87 0 01-1.87-1.869 1.87 1.87 0 011.87-1.87h19.246a1.87 1.87 0 011.869 1.87 1.87 1.87 0 01-1.87 1.87zM23.32 49.487h-5.943C7.799 49.487 0 41.688 0 32.11a17.377 17.377 0 019.023-15.236 1.877 1.877 0 012.553.748c.502.902.167 2.05-.748 2.552a13.623 13.623 0 00-7.077 11.95c0 7.515 6.11 13.625 13.626 13.625h5.942a1.87 1.87 0 011.87 1.869c.012 1.018-.839 1.87-1.87 1.87z" fill="#2D527C"/><path d="M24.918 63.203c-8.547 0-15.508-6.961-15.508-15.52a1.87 1.87 0 011.87-1.87 1.87 1.87 0 011.868 1.87c0 6.483 5.273 11.769 11.77 11.769s11.769-5.273 11.769-11.77c0-6.484-5.272-11.769-11.77-11.769-3.26 0-6.29 1.302-8.533 3.661a1.875 1.875 0 01-2.655.065 1.875 1.875 0 01-.065-2.656c2.965-3.12 6.961-4.834 11.254-4.834 8.559 0 15.52 6.961 15.52 15.52 0 8.56-6.961 15.534-15.52 15.534z" fill="#F0BF5F"/><path d="M49.565 45.788H38.118a1.87 1.87 0 01-1.87-1.87 1.87 1.87 0 011.87-1.869h11.447a1.87 1.87 0 011.869 1.87 1.87 1.87 0 01-1.87 1.869z" fill="#F0BF5F"/><path d="M61.81 53.328H38.556a1.87 1.87 0 01-1.87-1.869 1.87 1.87 0 011.87-1.869H61.81a.435.435 0 00.438-.438V38.504a.646.646 0 00-.645-.644H59.98a.646.646 0 00-.644.644v5.002a1.87 1.87 0 01-1.87 1.869 1.87 1.87 0 01-1.869-1.87v-5a4.401 4.401 0 014.396-4.396h1.624a4.401 4.401 0 014.396 4.395v10.648a4.214 4.214 0 01-4.203 4.176z" fill="#F0BF5F"/><path d="M24.918 52.942a5.337 5.337 0 100-10.674 5.337 5.337 0 000 10.674z" fill="#CEE8FA"/><path d="M24.918 54.81c-3.97 0-7.206-3.235-7.206-7.205s3.235-7.206 7.206-7.206c3.97 0 7.205 3.236 7.205 7.206a7.21 7.21 0 01-7.205 7.206zm0-10.66a3.455 3.455 0 100 6.91 3.455 3.455 0 000-6.91z" fill="#F0BF5F"/><path d="M27.895 24.57V8.65a3.972 3.972 0 013.97-3.97h28.283a3.972 3.972 0 013.97 3.97v15.92a3.972 3.972 0 01-3.97 3.97h-28.27a3.975 3.975 0 01-3.983-3.97z" fill="#CEE8FA"/><path d="M60.148 30.422h-28.27a5.864 5.864 0 01-5.852-5.852V8.65a5.864 5.864 0 015.852-5.853H60.16c3.223 0 5.853 2.63 5.853 5.853v15.92c-.013 3.222-2.643 5.852-5.865 5.852zM31.878 6.548c-1.16 0-2.1.941-2.1 2.102v15.92c0 1.16.94 2.1 2.1 2.1H60.16c1.16 0 2.102-.94 2.102-2.1V8.65c0-1.16-.941-2.102-2.102-2.102H31.88z" fill="#2D527C"/><path d="M44.447 17.712h-.632v-1.148c0-.657-.657-1.082-1.676-1.082-1.018 0-1.675.425-1.675 1.082v1.148h-1.148l3.236-6.497c.051-.129.116-.284.116-.438 0-.813-1.083-1.315-1.676-1.315-.619 0-1.121.31-1.405.863l-4.383 8.624c-.154.284-.18.529-.18.658 0 .722.477 1.211 1.173 1.211h4.267v1.83c0 .761.863 1.097 1.675 1.097.8 0 1.676-.349 1.676-1.096v-1.83h.632c.567 0 1.095-.761 1.095-1.56 0-.748-.348-1.547-1.095-1.547zM55.894 17.712h-.632v-1.148c0-.657-.657-1.082-1.676-1.082-1.018 0-1.675.425-1.675 1.082v1.148h-1.148l3.249-6.497c.051-.129.116-.284.116-.438 0-.813-1.083-1.315-1.676-1.315-.619 0-1.122.31-1.405.863l-4.383 8.624a1.39 1.39 0 00-.18.658c0 .722.477 1.211 1.173 1.211h4.266v1.83c0 .761.864 1.097 1.676 1.097.812 0 1.676-.349 1.676-1.096v-1.83h.632c.567 0 1.095-.761 1.095-1.56 0-.748-.348-1.547-1.108-1.547z" fill="#2D527C"/></g><defs><clipPath id="eclip0"><path fill="#fff" d="M0 0h66v66H0z"/></clipPath></defs></svg><svg fill="none" viewBox="0 0 25 25" id="instagram" xmlns="http://www.w3.org/2000/svg"><path d="M10.107 12.5a2.393 2.393 0 104.786 0 2.393 2.393 0 00-4.786 0z" fill="#fff"/><path d="M6.905 8.267c.115-.312.298-.594.537-.825.231-.239.513-.422.825-.537.253-.099.633-.215 1.332-.247.758-.035.985-.042 2.901-.042 1.917 0 2.144.007 2.9.041.7.033 1.08.15 1.333.248.312.115.594.298.825.537.239.231.422.513.538.825.098.253.215.633.247 1.333.034.757.042.984.042 2.9 0 1.917-.008 2.144-.042 2.9-.032.7-.15 1.08-.247 1.333a2.225 2.225 0 01-.537.826 2.223 2.223 0 01-.826.537c-.253.098-.633.215-1.333.247-.756.034-.983.042-2.9.042-1.917 0-2.144-.008-2.9-.042-.7-.032-1.08-.149-1.333-.247a2.377 2.377 0 01-1.362-1.363c-.099-.253-.216-.632-.248-1.332-.034-.757-.041-.984-.041-2.9 0-1.917.007-2.144.041-2.901.032-.7.15-1.08.248-1.333zm5.595 7.919a3.686 3.686 0 100-7.372 3.686 3.686 0 000 7.372zM8.669 9.53a.861.861 0 100-1.723.861.861 0 000 1.723z" fill="#fff"/><path d="M12.5 0C19.402 0 25 5.598 25 12.5S19.402 25 12.5 25 0 19.402 0 12.5 5.598 0 12.5 0zM5.366 15.46c.034.763.156 1.285.333 1.742A3.67 3.67 0 007.8 19.3c.456.177.978.299 1.742.333.765.035 1.01.044 2.959.044 1.95 0 2.194-.009 2.96-.044.763-.035 1.285-.156 1.741-.333.48-.18.913-.463 1.272-.828a3.52 3.52 0 00.828-1.271c.177-.457.299-.979.333-1.743.035-.765.044-1.01.044-2.959 0-1.95-.009-2.194-.044-2.96-.034-.763-.156-1.285-.333-1.742a3.516 3.516 0 00-.828-1.27 3.516 3.516 0 00-1.271-.829c-.457-.177-.979-.299-1.743-.333-.765-.035-1.01-.044-2.959-.044-1.95 0-2.194.009-2.96.044-.763.034-1.285.156-1.742.333-.479.18-.912.463-1.271.828a3.517 3.517 0 00-.828 1.271c-.177.457-.299.979-.334 1.743-.035.765-.043 1.01-.043 2.959 0 1.95.008 2.194.044 2.96z" fill="#fff"/></svg><svg fill="none" viewBox="0 0 66 66" id="parking" xmlns="http://www.w3.org/2000/svg"><g clip-path="url(#gclip0)"><path d="M15.636 60.315H11.19c-.992 0-1.792-.799-1.792-1.792 0-.992.8-1.791 1.792-1.791h4.447c.993 0 1.792.799 1.792 1.791 0 .993-.799 1.792-1.792 1.792zM64.208 60.315H59.49c-.992 0-1.791-.799-1.791-1.792 0-.992.799-1.791 1.791-1.791h4.718c.993 0 1.792.799 1.792 1.791 0 .993-.8 1.792-1.792 1.792z" fill="#F0BF5F"/><path d="M62.236 60.096H59.49c-.992 0-1.791-.8-1.791-1.792s.799-1.791 1.791-1.791h.954v-.787c0-3.66-1.56-6.613-4.511-8.546-2.153-1.405-4.886-2.153-7.902-2.153H21.9a5.087 5.087 0 00-4.963 4.035l-1.572 7.45h.541c.993 0 1.792.8 1.792 1.792 0 .993-.8 1.792-1.792 1.792h-2.745a1.8 1.8 0 01-1.393-.657 1.791 1.791 0 01-.36-1.496l2.023-9.616c.838-3.983 4.409-6.884 8.482-6.884h26.13c3.712 0 7.128.941 9.86 2.733 3.958 2.591 6.137 6.69 6.137 11.55v2.578a1.807 1.807 0 01-1.805 1.792z" fill="#F0BF5F"/><path d="M41.959 60.096H28.282c-.992 0-1.792-.8-1.792-1.792s.8-1.791 1.792-1.791h13.69c.992 0 1.792.799 1.792 1.791 0 .993-.812 1.792-1.805 1.792z" fill="#F0BF5F"/><path d="M48.03 43.235c2.707 0 5.247.554 7.4 1.611l-2.514-10.892a6.055 6.055 0 00-5.852-4.512H31.092a6.02 6.02 0 00-5.581 3.739l-3.752 10.054h26.272z" fill="#CEE8FA"/><path d="M55.43 46.638c-.271 0-.542-.064-.787-.18-1.907-.928-4.202-1.431-6.613-1.431H21.76a1.764 1.764 0 01-1.47-.773 1.788 1.788 0 01-.206-1.65l3.75-10.055c.014-.026.014-.039.026-.065a7.819 7.819 0 017.245-4.847h15.972a7.835 7.835 0 017.58 5.84c0 .013.012.039.012.052l2.514 10.892a1.79 1.79 0 01-.632 1.805 1.68 1.68 0 01-1.121.412zm-31.08-5.195h23.693c1.702 0 3.352.207 4.912.606l-1.766-7.657a4.263 4.263 0 00-4.112-3.145H31.092a4.243 4.243 0 00-3.919 2.604l-2.823 7.592z" fill="#F0BF5F"/><path d="M41.959 52.568c-.993 0-1.792-.8-1.792-1.792v-20.65c0-.993.8-1.792 1.792-1.792s1.792.799 1.792 1.791v20.638a1.79 1.79 0 01-1.792 1.805z" fill="#F0BF5F"/><path d="M54.463 64.866a7.108 7.108 0 01-7.103-7.103 7.108 7.108 0 017.103-7.103 7.108 7.108 0 017.103 7.103 7.108 7.108 0 01-7.103 7.103zm0-10.622a3.524 3.524 0 00-3.52 3.519 3.515 3.515 0 003.52 3.519 3.524 3.524 0 003.52-3.52 3.524 3.524 0 00-3.52-3.518zM20.844 64.866a7.108 7.108 0 01-7.103-7.103 7.108 7.108 0 017.103-7.103 7.108 7.108 0 017.103 7.103c.013 3.919-3.184 7.103-7.103 7.103zm0-10.622a3.515 3.515 0 00-3.52 3.519 3.515 3.515 0 003.52 3.519 3.515 3.515 0 003.52-3.52 3.515 3.515 0 00-3.52-3.518zM24.39 25.717H1.791c-.993 0-1.792-.8-1.792-1.792V2.926c0-.992.8-1.792 1.792-1.792h22.597c.993 0 1.792.8 1.792 1.792v20.999c0 .993-.8 1.792-1.792 1.792zM3.583 22.133h19.013V4.718H3.584v17.415z" fill="#2D527C"/><path d="M13.329 7.257H9.99c-.683 0-1.199.439-1.199 1.032v10.26c0 .62.632 1.045 1.521 1.045.903 0 1.522-.426 1.522-1.044v-3.21h1.327c2.694 0 4.241-1.457 4.241-4.01v-.076c0-2.579-1.443-3.997-4.073-3.997zm-.168 5.595h-1.327V9.99h1.327c.8 0 1.186.438 1.186 1.34v.181c0 .903-.386 1.34-1.186 1.34zM13.084 40.799c-.993 0-1.792-.8-1.792-1.792v-14.85c0-.992.8-1.792 1.792-1.792s1.792.8 1.792 1.792v14.85c.013.993-.8 1.792-1.792 1.792z" fill="#2D527C"/></g><defs><clipPath id="gclip0"><path fill="#fff" d="M0 0h66v66H0z"/></clipPath></defs></svg><svg fill="none" viewBox="0 0 64 66" id="reception" xmlns="http://www.w3.org/2000/svg"><path d="M54.025 49.72H9.975c-1.012 0-1.825-.839-1.825-1.883v-1.985c0-13.561 10.7-24.595 23.85-24.595 2.487 0 4.938.4 7.288 1.173.962.322 1.487 1.379 1.187 2.372-.313.992-1.337 1.534-2.3 1.224A19.618 19.618 0 0032 25.034c-11.137 0-20.2 9.345-20.2 20.83v.104h40.4v-.103c0-5.595-2.125-10.854-5.975-14.799a1.933 1.933 0 01-.013-2.668 1.794 1.794 0 012.588-.013c4.55 4.654 7.063 10.854 7.063 17.467v1.985c-.013 1.044-.825 1.882-1.838 1.882z" fill="#F0BF5F"/><path d="M32 24.582c-1.012 0-1.825-.838-1.825-1.882v-5.336c0-1.044.813-1.882 1.825-1.882 1.013 0 1.825.838 1.825 1.882V22.7c0 1.044-.812 1.882-1.825 1.882z" fill="#F0BF5F"/><path d="M36.475 18.807h-8.95c-1.012 0-1.825-.837-1.825-1.882 0-1.044.813-1.882 1.825-1.882h8.95c1.013 0 1.825.838 1.825 1.882s-.812 1.882-1.825 1.882z" fill="#F0BF5F"/><path d="M47.987 47.837H16v7.928h31.987v-7.928z" fill="#CEE8FA"/><path d="M48 57.647H16c-1.012 0-1.825-.838-1.825-1.882v-7.928c0-1.044.813-1.882 1.825-1.882h32c1.013 0 1.825.838 1.825 1.882v7.928c0 1.044-.825 1.882-1.825 1.882zm-30.163-3.764h28.338v-4.164H17.838v4.164z" fill="#F0BF5F"/><path d="M54.237 61.81H9.762c-2.125 0-3.85-1.778-3.85-3.97 0-2.191 1.725-3.97 3.85-3.97h44.475c2.125 0 3.85 1.779 3.85 3.97-.012 2.192-1.725 3.97-3.85 3.97z" fill="#CEE8FA"/><path d="M54.237 63.693H9.764c-3.125 0-5.675-2.617-5.675-5.853 0-3.235 2.537-5.852 5.675-5.852h44.474c3.125 0 5.675 2.63 5.675 5.852-.012 3.236-2.55 5.853-5.675 5.853zM9.764 55.765c-1.113 0-2.013.928-2.013 2.075 0 1.147.9 2.076 2.013 2.076h44.474c1.113 0 2.013-.928 2.013-2.076 0-1.147-.9-2.075-2.013-2.075H9.764zM32 9.732c-1.012 0-1.825-.837-1.825-1.882V4.19c0-1.045.813-1.883 1.825-1.883 1.013 0 1.825.838 1.825 1.882V7.85c0 1.045-.812 1.882-1.825 1.882zM62.175 35.307h-3.55c-1.013 0-1.825-.838-1.825-1.882s.813-1.882 1.825-1.882h3.55c1.013 0 1.825.838 1.825 1.882s-.813 1.882-1.825 1.882zM5.375 35.307h-3.55C.813 35.307 0 34.47 0 33.425s.813-1.882 1.825-1.882h3.55c1.013 0 1.825.838 1.825 1.882s-.813 1.882-1.825 1.882zM49.538 17.222a1.76 1.76 0 01-1.288-.554 1.933 1.933 0 010-2.669l2.5-2.578a1.794 1.794 0 012.587 0 1.933 1.933 0 010 2.668l-2.512 2.591c-.35.361-.825.542-1.288.542zM14.463 17.222a1.76 1.76 0 01-1.288-.554l-2.513-2.591a1.933 1.933 0 010-2.669 1.794 1.794 0 012.588 0L15.762 14a1.933 1.933 0 010 2.669 1.788 1.788 0 01-1.3.554z" fill="#2D527C"/></svg><svg fill="none" viewBox="0 0 67 66" id="security-box" xmlns="http://www.w3.org/2000/svg"><path d="M60.51 61.553H6.49C2.919 61.553 0 58.69 0 55.159V10.841c0-3.532 2.918-6.394 6.49-6.394h35.45c1.021 0 1.846.812 1.846 1.818 0 1.005-.825 1.817-1.846 1.817H6.49c-1.544 0-2.8 1.238-2.8 2.759v44.318c0 1.521 1.256 2.759 2.8 2.759h54.02c1.544 0 2.8-1.238 2.8-2.759V10.841c0-1.521-1.257-2.759-2.8-2.759h-7.93c-1.021 0-1.846-.812-1.846-1.817 0-1.006.825-1.818 1.845-1.818h7.93c3.586 0 6.491 2.875 6.491 6.394v44.318c0 3.532-2.918 6.394-6.49 6.394z" fill="#2D527C"/><path d="M53.875 53.535H18.137c-1.02 0-1.845-.812-1.845-1.818 0-1.005.824-1.817 1.845-1.817h35.738c.706 0 1.282-.568 1.282-1.264v-31.26c0-.696-.576-1.263-1.282-1.263H18.137c-1.02 0-1.845-.812-1.845-1.817 0-1.006.824-1.818 1.845-1.818h35.738c2.748 0 4.986 2.204 4.986 4.911v31.247c0 2.694-2.238 4.899-4.986 4.899zM9.985 53.535c-1.021 0-1.846-.812-1.846-1.818V14.283c0-1.006.825-1.818 1.846-1.818 1.02 0 1.845.812 1.845 1.818v37.434c.013 1.006-.825 1.818-1.845 1.818z" fill="#2D527C"/><path d="M42.673 47.502c-8.113 0-14.721-6.51-14.721-14.502 0-7.992 6.608-14.502 14.721-14.502 8.114 0 14.722 6.51 14.722 14.502 0 7.992-6.608 14.502-14.722 14.502zm0-25.369c-6.085 0-11.031 4.873-11.031 10.867 0 5.994 4.946 10.867 11.031 10.867 6.085 0 11.032-4.873 11.032-10.867 0-5.994-4.947-10.867-11.032-10.867zm0 17.428c-3.677 0-6.66-2.939-6.66-6.561s2.983-6.561 6.66-6.561 6.661 2.939 6.661 6.561-2.984 6.561-6.66 6.561zm0-9.487c-1.636 0-2.97 1.315-2.97 2.926 0 1.611 1.334 2.926 2.97 2.926 1.636 0 2.97-1.315 2.97-2.926 0-1.611-1.334-2.926-2.97-2.926z" fill="#F0BF5F"/><path d="M18.124 39.78h-8.14v5.892h8.14V39.78z" fill="#CEE8FA"/><path d="M18.137 47.49H9.985c-1.021 0-1.846-.813-1.846-1.819v-5.89c0-1.006.825-1.818 1.846-1.818h8.139c1.02 0 1.845.812 1.845 1.818v5.89c.013 1.006-.811 1.818-1.832 1.818zm-6.294-3.636h4.449v-2.256h-4.45v2.256z" fill="#2D527C"/><path d="M18.124 20.328h-8.14v5.892h8.14v-5.892z" fill="#CEE8FA"/><path d="M18.137 28.037H9.985c-1.021 0-1.846-.812-1.846-1.817v-5.892c0-1.005.825-1.817 1.846-1.817h8.139c1.02 0 1.845.812 1.845 1.817v5.892c.013 1.005-.811 1.817-1.832 1.817zm-6.294-3.635h4.449v-2.256h-4.45v2.256z" fill="#2D527C"/><path d="M33.984 43.377c-.47 0-.942-.18-1.308-.529a1.81 1.81 0 010-2.578l5.286-5.208a1.876 1.876 0 012.617 0c.72.71.72 1.87 0 2.579l-5.286 5.207a1.902 1.902 0 01-1.309.529zM46.416 31.13c-.471 0-.942-.18-1.309-.528a1.81 1.81 0 010-2.578l4.947-4.872a1.876 1.876 0 012.617 0c.72.708.72 1.869 0 2.578l-4.947 4.872a1.878 1.878 0 01-1.308.529zM38.84 31.04c-.472 0-.943-.18-1.31-.528l-4.854-4.782a1.81 1.81 0 010-2.578 1.876 1.876 0 012.617 0l4.855 4.782c.72.709.72 1.87 0 2.578-.354.361-.838.529-1.309.529zM51.362 43.377c-.47 0-.942-.18-1.308-.529l-4.92-4.846a1.81 1.81 0 010-2.579 1.876 1.876 0 012.617 0l4.92 4.847c.72.71.72 1.87 0 2.578a1.901 1.901 0 01-1.309.529z" fill="#F0BF5F"/></svg><svg fill="none" viewBox="0 0 64 66" id="swimming-pool" xmlns="http://www.w3.org/2000/svg"><g clip-path="url(#jclip0)"><path d="M32.788 29.545c-.988 0-1.8-.825-1.8-1.856V6.64C31 3.326 33.775.645 37.2.645s6.2 2.694 6.2 6.007c0 1.018-.8 1.856-1.8 1.856s-1.8-.825-1.8-1.856c0-1.264-1.175-2.295-2.612-2.295-1.438 0-2.613 1.031-2.613 2.295v21.05c.012 1.005-.788 1.843-1.788 1.843zM53.388 34.908c-.988 0-1.8-.825-1.8-1.856V6.639C51.6 3.326 54.374.645 57.8.645S64 3.325 64 6.639c0 1.018-.8 1.856-1.8 1.856-.988 0-1.8-.825-1.8-1.856 0-1.264-1.175-2.295-2.612-2.295-1.438 0-2.613 1.031-2.613 2.295v26.413c.013 1.018-.787 1.856-1.787 1.856z" fill="#F0BF5F"/><path d="M42.5 16.113h-9.7c-.987 0-1.8-.825-1.8-1.856 0-1.031.8-1.856 1.8-1.856h9.7c.988 0 1.8.825 1.8 1.856 0 1.031-.812 1.856-1.8 1.856zM42.5 29.545h-9.7c-.987 0-1.8-.825-1.8-1.856 0-1.031.8-1.856 1.8-1.856h9.7c.988 0 1.8.825 1.8 1.856-.012 1.018-.812 1.856-1.8 1.856zM53.388 22.83h-9.7c-.988 0-1.8-.826-1.8-1.857 0-1.031.8-1.856 1.8-1.856h9.7c.987 0 1.8.825 1.8 1.856 0 1.031-.8 1.856-1.8 1.856z" fill="#F0BF5F"/><path d="M58.962 48.353c0 2.217-2.562 4.009-5.737 4.009-3.163 0-5.738-1.792-5.738-4.01 0 2.218-2.562 4.01-5.737 4.01-3.163 0-5.737-1.792-5.737-4.01h.087c0 2.218-2.563 4.01-5.738 4.01-3.174 0-5.737-1.792-5.737-4.01 0 2.218-2.563 4.01-5.738 4.01-3.175 0-5.737-1.792-5.737-4.01h.088c0 2.218-2.563 4.01-5.738 4.01-3.175 0-5.738-1.792-5.738-4.01V37.01c0 2.217 2.563 4.009 5.738 4.009 3.175 0 5.738-1.792 5.738-4.009h-.088c0 2.217 2.563 4.009 5.737 4.009 3.175 0 5.738-1.792 5.738-4.009 0 2.217 2.563 4.009 5.738 4.009 3.175 0 5.737-1.792 5.737-4.009h-.087c0 2.217 2.562 4.009 5.737 4.009 3.175 0 5.737-1.792 5.737-4.009 0 2.217 2.563 4.009 5.738 4.009 3.175 0 5.737-1.792 5.737-4.009v11.344z" fill="#CEE8FA"/><path d="M53.225 54.218c-2.325 0-4.363-.774-5.738-2.024-1.375 1.25-3.412 2.024-5.737 2.024-2.275 0-4.313-.76-5.688-1.985-1.374 1.224-3.412 1.985-5.687 1.985-2.325 0-4.363-.774-5.738-2.024-1.375 1.25-3.412 2.024-5.737 2.024-2.275 0-4.312-.76-5.687-1.985-1.375 1.237-3.413 1.985-5.688 1.985C3.3 54.218 0 51.64 0 48.353V37.009c0-1.018.8-1.856 1.8-1.856s1.8.825 1.8 1.856c0 .993 1.725 2.153 3.937 2.153 2 0 3.538-.89 3.875-1.792-.012-.116-.012-.245-.012-.361 0-1.018.8-1.856 1.8-1.856h.088c.987 0 1.8.825 1.8 1.856 0 .116 0 .245-.013.36.338.903 1.875 1.793 3.875 1.793 2.213 0 3.938-1.16 3.938-2.153 0-1.018.8-1.856 1.8-1.856s1.8.825 1.8 1.856c0 .993 1.724 2.153 3.937 2.153 2 0 3.537-.89 3.875-1.792-.012-.116-.012-.245-.012-.361 0-1.018.8-1.856 1.8-1.856h.087c.988 0 1.8.825 1.8 1.856 0 .116 0 .245-.013.36.338.903 1.875 1.793 3.875 1.793 2.213 0 3.938-1.16 3.938-2.153 0-1.018.8-1.856 1.8-1.856.987 0 1.8.825 1.8 1.856 0 .993 1.725 2.153 3.938 2.153 2.212 0 3.937-1.16 3.937-2.153 0-1.018.8-1.856 1.8-1.856s1.8.825 1.8 1.856v11.344c-.087 3.287-3.4 5.865-7.625 5.865zm-3.938-5.865c0 .992 1.726 2.152 3.938 2.152s3.938-1.16 3.938-2.152v-6.33c-1.138.529-2.488.838-3.938.838-2.325 0-4.363-.773-5.738-2.023-1.375 1.25-3.412 2.023-5.737 2.023-2.275 0-4.313-.76-5.688-1.985-1.374 1.238-3.412 1.985-5.687 1.985-2.325 0-4.363-.773-5.738-2.023-1.375 1.25-3.412 2.023-5.737 2.023-2.275 0-4.312-.76-5.687-1.985-1.375 1.238-3.413 1.985-5.688 1.985-1.45 0-2.8-.309-3.938-.838v6.33c0 .992 1.725 2.152 3.938 2.152 2 0 3.537-.889 3.875-1.791-.013-.116-.013-.245-.013-.361 0-1.019.8-1.857 1.8-1.857h.088c.987 0 1.8.825 1.8 1.857 0 .116 0 .245-.012.36.337.903 1.874 1.792 3.874 1.792 2.213 0 3.938-1.16 3.938-2.152 0-1.019.8-1.857 1.8-1.857s1.8.825 1.8 1.857c0 .992 1.725 2.152 3.938 2.152 2 0 3.537-.889 3.875-1.791-.013-.116-.013-.245-.013-.361 0-1.019.8-1.857 1.8-1.857h.087c.988 0 1.8.825 1.8 1.857 0 .116 0 .245-.012.36.337.903 1.875 1.792 3.875 1.792 2.212 0 3.938-1.16 3.938-2.152 0-1.019.8-1.857 1.8-1.857.924.013 1.724.838 1.724 1.857zM41.763 65.356c-2.3 0-4.325-.761-5.688-1.986-1.375 1.225-3.4 1.986-5.688 1.986-2.325 0-4.362-.774-5.737-2.024-1.375 1.25-3.412 2.024-5.737 2.024-4.226 0-7.526-2.579-7.526-5.866 0-1.018.8-1.856 1.8-1.856h.088c.987 0 1.8.825 1.8 1.856 0 .103-.012.22-.025.322.313.916 1.9 1.844 3.887 1.844 2.213 0 3.938-1.16 3.938-2.153 0-1.018.8-1.856 1.8-1.856s1.8.825 1.8 1.856c0 .993 1.725 2.153 3.938 2.153 1.962 0 3.524-.902 3.862-1.805-.012-.116-.012-.232-.012-.36 0-1.02.8-1.857 1.8-1.857h.087c.988 0 1.8.825 1.8 1.856 0 .116 0 .232-.013.361.338.903 1.913 1.805 3.863 1.805 2.213 0 3.938-1.16 3.938-2.153 0-1.018.8-1.856 1.8-1.856.987 0 1.8.825 1.8 1.856-.05 3.287-3.35 5.853-7.575 5.853z" fill="#2D527C"/></g><defs><clipPath id="jclip0"><path fill="#fff" d="M0 0h64v66H0z"/></clipPath></defs></svg><svg fill="none" viewBox="0 0 25 25" id="tripadvisor" xmlns="http://www.w3.org/2000/svg"><g clip-path="url(#kclip0)" fill="#fff"><path d="M17.178 11.784c-.844 0-1.534.665-1.534 1.509 0 .843.69 1.533 1.508 1.533a1.51 1.51 0 001.508-1.508 1.465 1.465 0 00-1.482-1.534zm0 2.275a.753.753 0 01-.767-.766c0-.435.332-.767.767-.767a.77.77 0 01.767.767.769.769 0 01-.767.767zM7.796 9.586c-2.019-.026-3.783 1.662-3.732 3.809.026 1.994 1.688 3.706 3.784 3.68 2.045-.025 3.706-1.686 3.706-3.731a3.747 3.747 0 00-3.758-3.758zm.052 6.033c-1.355.05-2.454-1.023-2.454-2.326 0-1.33 1.099-2.352 2.326-2.327a2.318 2.318 0 012.326 2.327c.026 1.303-.997 2.275-2.198 2.326z"/><path d="M12.5 0C5.598 0 0 5.598 0 12.5S5.598 25 12.5 25 25 19.402 25 12.5 19.402 0 12.5 0zm7.183 17.357a4.6 4.6 0 01-2.505.716c-.384 0-.767-.052-1.125-.154a4.808 4.808 0 01-2.3-1.355c-.077-.076-.154-.178-.256-.28-.332.51-.665.996-.997 1.507-.332-.51-.665-.997-.997-1.482-.026 0-.026.025-.026.025l-.025.026c-.767.92-1.738 1.457-2.914 1.662a4.526 4.526 0 01-1.943-.103 4.753 4.753 0 01-2.3-1.431c-.614-.69-.972-1.483-1.125-2.403-.154-.844.025-1.662.076-1.866.154-.588.384-1.1.742-1.585.025-.026.025-.102.025-.128-.128-.511-.383-.971-.664-1.431-.077-.103-.154-.205-.23-.333v-.025h2.888c.051 0 .077-.026.128-.051a9.543 9.543 0 012.122-1.023 11.853 11.853 0 011.636-.434 11.443 11.443 0 011.636-.205c1.329-.102 2.402.026 3.118.128.537.077 1.048.204 1.56.358.894.28 1.712.664 2.505 1.15a.482.482 0 00.204.051H21.906v.026c-.05.076-.076.128-.127.204-.307.486-.588.972-.741 1.534-.026.051-.026.102.025.179.818 1.176 1.074 2.48.742 3.885-.358 1.202-1.048 2.148-2.122 2.838z"/><path d="M7.72 11.784c-.818 0-1.508.69-1.508 1.509 0 .843.69 1.508 1.533 1.508.818 0 1.509-.69 1.509-1.534 0-.818-.665-1.483-1.534-1.483zm.025 2.301a.78.78 0 01-.792-.792c0-.435.332-.767.767-.767.434 0 .767.332.792.767.026.434-.332.767-.767.792zM17.101 9.612a3.76 3.76 0 00-3.68 3.732c0 2.07 1.686 3.783 3.757 3.757a3.748 3.748 0 003.758-3.757A3.727 3.727 0 0017.1 9.612zm.18 6.007a2.327 2.327 0 01-2.43-2.326c0-1.33 1.1-2.352 2.327-2.327a2.318 2.318 0 012.326 2.327 2.333 2.333 0 01-2.224 2.326z"/><path d="M13.983 9.867c.818-.767 1.814-1.15 2.94-1.252-1.33-.588-2.736-.844-4.193-.87-1.636-.025-3.246.205-4.755.844 1.15.077 2.148.46 2.991 1.227.844.767 1.33 1.738 1.508 2.863.205-1.1.69-2.045 1.509-2.812z"/></g><defs><clipPath id="kclip0"><path fill="#fff" d="M0 0h25v25H0z"/></clipPath></defs></svg><svg fill="none" viewBox="0 0 25 25" id="twitter" xmlns="http://www.w3.org/2000/svg"><g clip-path="url(#lclip0)"><path d="M12.5 0C5.598 0 0 5.598 0 12.5S5.598 25 12.5 25 25 19.402 25 12.5 19.402 0 12.5 0zm7.54 9.151v.435c0 5.342-4.063 10.864-10.863 10.864-2.07 0-4.09-.588-5.854-1.713-.025-.025-.051-.076-.025-.102.025-.051.05-.077.102-.051.281.025.588.051.894.051a7.53 7.53 0 004.448-1.457 3.872 3.872 0 01-3.374-2.684c0-.026 0-.077.026-.102.025-.026.05-.026.076-.026.435.077.87.077 1.278.026a3.874 3.874 0 01-2.735-3.707v-.051c0-.026.026-.051.051-.077.026-.025.052-.025.103 0 .409.23.869.384 1.354.435A3.879 3.879 0 014.064 7.95c0-.69.18-1.355.537-1.943.026-.025.051-.051.077-.051.025 0 .051 0 .077.026 1.891 2.3 4.652 3.732 7.617 3.91a3.884 3.884 0 013.809-4.652c1.048 0 2.07.435 2.786 1.176.818-.179 1.61-.46 2.326-.895a.078.078 0 01.103 0c.025.026.05.077.025.103a3.953 3.953 0 01-1.355 1.917 6.552 6.552 0 001.739-.537c.025-.025.076 0 .102.026a.078.078 0 010 .102c-.486.843-1.125 1.483-1.866 2.02z" fill="#fff"/></g><defs><clipPath id="lclip0"><path fill="#fff" d="M0 0h25v25H0z"/></clipPath></defs></svg><svg fill="none" viewBox="0 0 25 25" id="vk" xmlns="http://www.w3.org/2000/svg"><g clip-path="url(#mclip0)"><path d="M12.5 0C5.598 0 0 5.598 0 12.5S5.598 25 12.5 25 25 19.402 25 12.5 19.402 0 12.5 0zm6.34 13.855c.587.562 1.2 1.099 1.712 1.738.23.281.46.562.614.895.23.46.025.971-.384.997h-2.556c-.665.05-1.176-.205-1.636-.665-.358-.358-.69-.741-1.022-1.125a1.762 1.762 0 00-.46-.409c-.359-.23-.665-.153-.844.205-.205.383-.256.792-.281 1.201-.026.614-.205.767-.818.793-1.304.05-2.531-.128-3.656-.793-.997-.588-1.79-1.38-2.454-2.3-1.329-1.79-2.326-3.758-3.246-5.777-.205-.46-.051-.69.46-.716a40.93 40.93 0 012.505 0c.332 0 .562.204.69.511.46 1.1.997 2.173 1.687 3.144.18.256.384.511.64.716.306.204.51.128.664-.205.077-.204.128-.434.153-.664a8.668 8.668 0 00-.05-2.3c-.077-.512-.333-.819-.819-.921-.255-.051-.204-.128-.102-.281.204-.23.409-.384.792-.384h2.889c.46.103.562.282.614.742v3.22c0 .18.076.716.409.819.255.076.434-.128.587-.282.69-.741 1.176-1.61 1.636-2.505.205-.409.358-.818.537-1.227.128-.307.307-.46.665-.46h2.786c.077 0 .154 0 .256.026.46.076.588.28.46.741-.23.716-.665 1.33-1.1 1.917-.46.64-.97 1.253-1.43 1.917-.46.614-.435.92.101 1.432z" fill="#fff"/></g><defs><clipPath id="mclip0"><path fill="#fff" d="M0 0h25v25H0z"/></clipPath></defs></svg></svg>