<svg width="64" height="66" fill="none" xmlns="http://www.w3.org/2000/svg"><path d="M58.237 61.27h-8.8c-.937 0-1.7-.787-1.7-1.754s.763-1.753 1.7-1.753h8.8c1.313 0 2.375-1.096 2.375-2.45V23.488c0-1.354-1.062-2.45-2.375-2.45h-41c-1.312 0-2.374 1.096-2.374 2.45V55.34c0 1.353 1.062 2.449 2.375 2.449h22.874c.938 0 1.7.786 1.7 1.753 0 .967-.762 1.753-1.7 1.753H17.237c-3.174 0-5.762-2.668-5.762-5.943V23.487c0-3.274 2.588-5.943 5.763-5.943h41c3.175 0 5.762 2.668 5.762 5.943V55.34c0 3.26-2.587 5.93-5.763 5.93z" fill="#2D527C"/><path d="M23.837 53.11c-1.625 0-2.962-1.38-2.962-3.056V28.76c0-1.676 1.337-3.055 2.962-3.055 1.625 0 2.963 1.38 2.963 3.055v21.295c-.012 1.676-1.338 3.055-2.963 3.055z" fill="#CEE8FA"/><path d="M23.837 54.85c-2.562 0-4.65-2.153-4.65-4.796V28.76c0-2.643 2.088-4.795 4.65-4.795 2.563 0 4.65 2.152 4.65 4.795v21.295c0 2.643-2.087 4.796-4.65 4.796zm0-27.393c-.7 0-1.262.58-1.262 1.302v21.295c0 .722.563 1.302 1.262 1.302.7 0 1.263-.58 1.263-1.302V28.76c0-.722-.575-1.302-1.263-1.302z" fill="#F0BF5F"/><path d="M37.737 53.11c-1.625 0-2.962-1.38-2.962-3.056V28.76c0-1.676 1.337-3.055 2.962-3.055 1.625 0 2.963 1.38 2.963 3.055v21.295c0 1.676-1.325 3.055-2.963 3.055z" fill="#CEE8FA"/><path d="M37.737 54.85c-2.562 0-4.65-2.153-4.65-4.796V28.76c0-2.643 2.088-4.795 4.65-4.795 2.563 0 4.65 2.152 4.65 4.795v21.295c.013 2.643-2.075 4.796-4.65 4.796zm0-27.393c-.7 0-1.262.58-1.262 1.302v21.295c0 .722.563 1.302 1.262 1.302.7 0 1.263-.58 1.263-1.302V28.76c0-.722-.563-1.302-1.263-1.302z" fill="#F0BF5F"/><path d="M51.65 53.11c-1.625 0-2.962-1.38-2.962-3.056V28.76c0-1.676 1.337-3.055 2.962-3.055 1.625 0 2.962 1.38 2.962 3.055v21.295c0 1.676-1.337 3.055-2.962 3.055z" fill="#CEE8FA"/><path d="M51.65 54.85c-2.563 0-4.65-2.153-4.65-4.796V28.76c0-2.643 2.087-4.795 4.65-4.795s4.65 2.152 4.65 4.795v21.295c0 2.643-2.087 4.796-4.65 4.796zm0-27.393c-.7 0-1.262.58-1.262 1.302v21.295c0 .722.562 1.302 1.262 1.302s1.263-.58 1.263-1.302V28.76c0-.722-.563-1.302-1.263-1.302z" fill="#F0BF5F"/><path d="M13.175 29.713H7.287c-.937 0-1.7-.786-1.7-1.753 0-.967.763-1.753 1.7-1.753h5.888c.938 0 1.7.786 1.7 1.753 0 .967-.762 1.753-1.7 1.753zm0 22.881H7.287c-.937 0-1.7-.787-1.7-1.753 0-.967.763-1.754 1.7-1.754h5.888c.938 0 1.7.787 1.7 1.754 0 .966-.762 1.753-1.7 1.753z" fill="#2D527C"/><path d="M5.925 32.42c-.938 0-1.7-.786-1.7-1.753V11.975c0-.966.762-1.753 1.7-1.753.937 0 1.7.8 1.7 1.753v18.692c0 .967-.763 1.753-1.7 1.753z" fill="#F0BF5F"/><path d="M5.925 61.27c-.938 0-1.7-.787-1.7-1.754v-20.11c0-.966.762-1.752 1.7-1.752.937 0 1.7.786 1.7 1.753v20.109c0 .967-.763 1.753-1.7 1.753z" fill="#2D527C"/><path d="M10.175 6.484H1.7v9.436h8.475V6.484z" fill="#CEE8FA"/><path d="M10.162 17.66H1.7c-.938 0-1.7-.786-1.7-1.753V6.484c0-.967.762-1.753 1.7-1.753h8.475c.938 0 1.7.786 1.7 1.753v9.436c-.012.954-.775 1.74-1.713 1.74zm-6.775-3.493h5.088V8.224H3.388v5.943z" fill="#2D527C"/></svg>