<svg width="66" height="66" fill="none" xmlns="http://www.w3.org/2000/svg"><g clip-path="url(#clip0)"><path d="M38.453 18.485H19.207a1.87 1.87 0 01-1.87-1.869 1.87 1.87 0 011.87-1.87h19.246a1.87 1.87 0 011.869 1.87 1.87 1.87 0 01-1.87 1.87zM23.32 49.487h-5.943C7.799 49.487 0 41.688 0 32.11a17.377 17.377 0 019.023-15.236 1.877 1.877 0 012.553.748c.502.902.167 2.05-.748 2.552a13.623 13.623 0 00-7.077 11.95c0 7.515 6.11 13.625 13.626 13.625h5.942a1.87 1.87 0 011.87 1.869c.012 1.018-.839 1.87-1.87 1.87z" fill="#2D527C"/><path d="M24.918 63.203c-8.547 0-15.508-6.961-15.508-15.52a1.87 1.87 0 011.87-1.87 1.87 1.87 0 011.868 1.87c0 6.483 5.273 11.769 11.77 11.769s11.769-5.273 11.769-11.77c0-6.484-5.272-11.769-11.77-11.769-3.26 0-6.29 1.302-8.533 3.661a1.875 1.875 0 01-2.655.065 1.875 1.875 0 01-.065-2.656c2.965-3.12 6.961-4.834 11.254-4.834 8.559 0 15.52 6.961 15.52 15.52 0 8.56-6.961 15.534-15.52 15.534z" fill="#F0BF5F"/><path d="M49.565 45.788H38.118a1.87 1.87 0 01-1.87-1.87 1.87 1.87 0 011.87-1.869h11.447a1.87 1.87 0 011.869 1.87 1.87 1.87 0 01-1.87 1.869z" fill="#F0BF5F"/><path d="M61.81 53.328H38.556a1.87 1.87 0 01-1.87-1.869 1.87 1.87 0 011.87-1.869H61.81a.435.435 0 00.438-.438V38.504a.646.646 0 00-.645-.644H59.98a.646.646 0 00-.644.644v5.002a1.87 1.87 0 01-1.87 1.869 1.87 1.87 0 01-1.869-1.87v-5a4.401 4.401 0 014.396-4.396h1.624a4.401 4.401 0 014.396 4.395v10.648a4.214 4.214 0 01-4.203 4.176z" fill="#F0BF5F"/><path d="M24.918 52.942a5.337 5.337 0 100-10.674 5.337 5.337 0 000 10.674z" fill="#CEE8FA"/><path d="M24.918 54.81c-3.97 0-7.206-3.235-7.206-7.205s3.235-7.206 7.206-7.206c3.97 0 7.205 3.236 7.205 7.206a7.21 7.21 0 01-7.205 7.206zm0-10.66a3.455 3.455 0 100 6.91 3.455 3.455 0 000-6.91z" fill="#F0BF5F"/><path d="M27.895 24.57V8.65a3.972 3.972 0 013.97-3.97h28.283a3.972 3.972 0 013.97 3.97v15.92a3.972 3.972 0 01-3.97 3.97h-28.27a3.975 3.975 0 01-3.983-3.97z" fill="#CEE8FA"/><path d="M60.148 30.422h-28.27a5.864 5.864 0 01-5.852-5.852V8.65a5.864 5.864 0 015.852-5.853H60.16a5.865 5.865 0 015.853 5.853v15.92c-.013 3.222-2.643 5.852-5.865 5.852zM31.878 6.548a2.1 2.1 0 00-2.1 2.102v15.92c0 1.16.94 2.1 2.1 2.1H60.16c1.16 0 2.102-.94 2.102-2.1V8.65c0-1.16-.941-2.102-2.102-2.102H31.88z" fill="#2D527C"/><path d="M44.447 17.712h-.632v-1.148c0-.657-.657-1.082-1.676-1.082-1.018 0-1.675.425-1.675 1.082v1.148h-1.148l3.236-6.497c.051-.129.116-.284.116-.438 0-.813-1.083-1.315-1.676-1.315-.619 0-1.121.31-1.405.863l-4.383 8.624a1.4 1.4 0 00-.18.658c0 .722.477 1.211 1.173 1.211h4.267v1.83c0 .761.863 1.097 1.675 1.097.8 0 1.676-.349 1.676-1.096v-1.83h.632c.567 0 1.095-.761 1.095-1.56 0-.748-.348-1.547-1.095-1.547zm11.447 0h-.632v-1.148c0-.657-.657-1.082-1.676-1.082-1.018 0-1.675.425-1.675 1.082v1.148h-1.148l3.249-6.497c.051-.129.116-.284.116-.438 0-.813-1.083-1.315-1.676-1.315-.619 0-1.122.31-1.405.863l-4.383 8.624a1.39 1.39 0 00-.18.658c0 .722.477 1.211 1.173 1.211h4.266v1.83c0 .761.864 1.097 1.676 1.097.812 0 1.676-.349 1.676-1.096v-1.83h.632c.567 0 1.095-.761 1.095-1.56 0-.748-.348-1.547-1.108-1.547z" fill="#2D527C"/></g><defs><clipPath id="clip0"><path fill="#fff" d="M0 0h66v66H0z"/></clipPath></defs></svg>