<svg width="25" height="25" fill="none" xmlns="http://www.w3.org/2000/svg"><path d="M10.107 12.5a2.393 2.393 0 104.786 0 2.393 2.393 0 00-4.786 0z" fill="#fff"/><path d="M6.905 8.267c.115-.312.298-.594.537-.825.231-.239.513-.422.825-.537.253-.099.633-.215 1.332-.247.758-.035.985-.042 2.901-.042 1.917 0 2.144.007 2.9.041.7.033 1.08.15 1.333.248.312.115.594.298.825.537.239.231.422.513.538.825.098.253.215.633.247 1.333.034.757.042.984.042 2.9 0 1.917-.008 2.144-.042 2.9-.032.7-.15 1.08-.247 1.333a2.225 2.225 0 01-.537.826 2.223 2.223 0 01-.826.537c-.253.098-.633.215-1.333.247-.756.034-.983.042-2.9.042-1.917 0-2.144-.008-2.9-.042-.7-.032-1.08-.149-1.333-.247a2.377 2.377 0 01-1.362-1.363c-.099-.253-.216-.632-.248-1.332-.034-.757-.041-.984-.041-2.9 0-1.917.007-2.144.041-2.901.032-.7.15-1.08.248-1.333zm5.595 7.919a3.686 3.686 0 100-7.372 3.686 3.686 0 000 7.372zM8.669 9.53a.861.861 0 100-1.723.861.861 0 000 1.723z" fill="#fff"/><path d="M12.5 0C19.402 0 25 5.598 25 12.5S19.402 25 12.5 25 0 19.402 0 12.5 5.598 0 12.5 0zM5.366 15.46c.034.763.156 1.285.333 1.742A3.67 3.67 0 007.8 19.3c.456.177.978.299 1.742.333.765.035 1.01.044 2.959.044 1.95 0 2.194-.009 2.96-.044.763-.035 1.285-.156 1.741-.333.48-.18.913-.463 1.272-.828a3.52 3.52 0 00.828-1.271c.177-.457.299-.979.333-1.743.035-.765.044-1.01.044-2.959 0-1.95-.009-2.194-.044-2.96-.034-.763-.156-1.285-.333-1.742a3.516 3.516 0 00-.828-1.27 3.516 3.516 0 00-1.271-.829c-.457-.177-.979-.299-1.743-.333-.765-.035-1.01-.044-2.959-.044-1.95 0-2.194.009-2.96.044-.763.034-1.285.156-1.742.333a3.52 3.52 0 00-1.271.828A3.517 3.517 0 005.7 7.797c-.177.457-.299.979-.334 1.743-.035.765-.043 1.01-.043 2.959 0 1.95.008 2.194.044 2.96z" fill="#fff"/></svg>