<svg width="64" height="66" fill="none" xmlns="http://www.w3.org/2000/svg"><path d="M54.025 49.72H9.975c-1.012 0-1.825-.839-1.825-1.883v-1.985c0-13.561 10.7-24.595 23.85-24.595 2.487 0 4.938.4 7.288 1.173.962.322 1.487 1.379 1.187 2.372-.313.992-1.337 1.534-2.3 1.224A19.618 19.618 0 0032 25.034c-11.137 0-20.2 9.345-20.2 20.83v.104h40.4v-.103c0-5.595-2.125-10.854-5.975-14.799a1.933 1.933 0 01-.013-2.668 1.794 1.794 0 012.588-.013c4.55 4.654 7.063 10.854 7.063 17.467v1.985c-.013 1.044-.825 1.882-1.838 1.882z" fill="#F0BF5F"/><path d="M32 24.582c-1.012 0-1.825-.838-1.825-1.882v-5.336c0-1.044.813-1.882 1.825-1.882 1.013 0 1.825.838 1.825 1.882V22.7c0 1.044-.812 1.882-1.825 1.882z" fill="#F0BF5F"/><path d="M36.475 18.807h-8.95c-1.012 0-1.825-.837-1.825-1.882 0-1.044.813-1.882 1.825-1.882h8.95c1.013 0 1.825.838 1.825 1.882s-.812 1.882-1.825 1.882z" fill="#F0BF5F"/><path d="M47.987 47.837H16v7.928h31.987v-7.928z" fill="#CEE8FA"/><path d="M48 57.647H16c-1.012 0-1.825-.838-1.825-1.882v-7.928c0-1.044.813-1.882 1.825-1.882h32c1.013 0 1.825.838 1.825 1.882v7.928c0 1.044-.825 1.882-1.825 1.882zm-30.163-3.764h28.338v-4.164H17.838v4.164z" fill="#F0BF5F"/><path d="M54.237 61.81H9.762c-2.125 0-3.85-1.778-3.85-3.97 0-2.191 1.725-3.97 3.85-3.97h44.475c2.125 0 3.85 1.779 3.85 3.97-.012 2.192-1.725 3.97-3.85 3.97z" fill="#CEE8FA"/><path d="M54.237 63.693H9.764c-3.125 0-5.675-2.617-5.675-5.853 0-3.235 2.537-5.852 5.675-5.852h44.474c3.125 0 5.675 2.63 5.675 5.852-.012 3.236-2.55 5.853-5.675 5.853zM9.764 55.765c-1.113 0-2.013.928-2.013 2.075 0 1.147.9 2.076 2.013 2.076h44.474c1.113 0 2.013-.928 2.013-2.076 0-1.147-.9-2.075-2.013-2.075H9.764zM32 9.732c-1.012 0-1.825-.837-1.825-1.882V4.19c0-1.045.813-1.883 1.825-1.883 1.013 0 1.825.838 1.825 1.882V7.85c0 1.045-.812 1.882-1.825 1.882zm30.175 25.575h-3.55c-1.013 0-1.825-.838-1.825-1.882s.813-1.882 1.825-1.882h3.55c1.013 0 1.825.838 1.825 1.882s-.813 1.882-1.825 1.882zm-56.8 0h-3.55C.813 35.307 0 34.47 0 33.425s.813-1.882 1.825-1.882h3.55c1.013 0 1.825.838 1.825 1.882s-.813 1.882-1.825 1.882zm44.163-18.085a1.76 1.76 0 01-1.288-.554 1.933 1.933 0 010-2.669l2.5-2.578a1.794 1.794 0 012.587 0 1.933 1.933 0 010 2.668l-2.512 2.591c-.35.361-.825.542-1.288.542zm-35.075 0a1.76 1.76 0 01-1.288-.554l-2.513-2.591a1.933 1.933 0 010-2.669 1.794 1.794 0 012.588 0L15.762 14a1.933 1.933 0 010 2.669 1.788 1.788 0 01-1.3.554z" fill="#2D527C"/></svg>