<svg width="64" height="66" fill="none" xmlns="http://www.w3.org/2000/svg"><g clip-path="url(#clip0)"><path d="M32.788 29.545c-.988 0-1.8-.825-1.8-1.856V6.64C31 3.326 33.775.645 37.2.645s6.2 2.694 6.2 6.007c0 1.018-.8 1.856-1.8 1.856s-1.8-.825-1.8-1.856c0-1.264-1.175-2.295-2.612-2.295-1.438 0-2.613 1.031-2.613 2.295v21.05c.012 1.005-.788 1.843-1.788 1.843zm20.6 5.363c-.988 0-1.8-.825-1.8-1.856V6.639C51.6 3.326 54.374.645 57.8.645S64 3.325 64 6.639c0 1.018-.8 1.856-1.8 1.856-.988 0-1.8-.825-1.8-1.856 0-1.264-1.175-2.295-2.612-2.295-1.438 0-2.613 1.031-2.613 2.295v26.413c.013 1.018-.787 1.856-1.787 1.856z" fill="#F0BF5F"/><path d="M42.5 16.113h-9.7c-.987 0-1.8-.825-1.8-1.856 0-1.031.8-1.856 1.8-1.856h9.7c.988 0 1.8.825 1.8 1.856 0 1.031-.812 1.856-1.8 1.856zm0 13.432h-9.7c-.987 0-1.8-.825-1.8-1.856 0-1.031.8-1.856 1.8-1.856h9.7c.988 0 1.8.825 1.8 1.856-.012 1.018-.812 1.856-1.8 1.856zm10.888-6.715h-9.7c-.988 0-1.8-.826-1.8-1.857 0-1.031.8-1.856 1.8-1.856h9.7c.987 0 1.8.825 1.8 1.856 0 1.031-.8 1.856-1.8 1.856z" fill="#F0BF5F"/><path d="M58.962 48.353c0 2.217-2.562 4.009-5.737 4.009-3.163 0-5.738-1.792-5.738-4.01 0 2.218-2.562 4.01-5.737 4.01-3.163 0-5.737-1.792-5.737-4.01h.087c0 2.218-2.563 4.01-5.738 4.01-3.174 0-5.737-1.792-5.737-4.01 0 2.218-2.563 4.01-5.738 4.01-3.175 0-5.737-1.792-5.737-4.01h.088c0 2.218-2.563 4.01-5.738 4.01-3.175 0-5.738-1.792-5.738-4.01V37.01c0 2.217 2.563 4.009 5.738 4.009 3.175 0 5.738-1.792 5.738-4.009h-.088c0 2.217 2.563 4.009 5.737 4.009 3.175 0 5.738-1.792 5.738-4.009 0 2.217 2.563 4.009 5.738 4.009 3.175 0 5.737-1.792 5.737-4.009h-.087c0 2.217 2.562 4.009 5.737 4.009 3.175 0 5.737-1.792 5.737-4.009 0 2.217 2.563 4.009 5.738 4.009 3.175 0 5.737-1.792 5.737-4.009v11.344z" fill="#CEE8FA"/><path d="M53.225 54.218c-2.325 0-4.363-.774-5.738-2.024-1.375 1.25-3.412 2.024-5.737 2.024-2.275 0-4.313-.76-5.688-1.985-1.374 1.224-3.412 1.985-5.687 1.985-2.325 0-4.363-.774-5.738-2.024-1.375 1.25-3.412 2.024-5.737 2.024-2.275 0-4.312-.76-5.687-1.985-1.375 1.237-3.413 1.985-5.688 1.985C3.3 54.218 0 51.64 0 48.353V37.009c0-1.018.8-1.856 1.8-1.856s1.8.825 1.8 1.856c0 .993 1.725 2.153 3.937 2.153 2 0 3.538-.89 3.875-1.792-.012-.116-.012-.245-.012-.361 0-1.018.8-1.856 1.8-1.856h.088c.987 0 1.8.825 1.8 1.856 0 .116 0 .245-.013.36.338.903 1.875 1.793 3.875 1.793 2.213 0 3.938-1.16 3.938-2.153 0-1.018.8-1.856 1.8-1.856s1.8.825 1.8 1.856c0 .993 1.724 2.153 3.937 2.153 2 0 3.537-.89 3.875-1.792-.012-.116-.012-.245-.012-.361 0-1.018.8-1.856 1.8-1.856h.087c.988 0 1.8.825 1.8 1.856 0 .116 0 .245-.013.36.338.903 1.875 1.793 3.875 1.793 2.213 0 3.938-1.16 3.938-2.153 0-1.018.8-1.856 1.8-1.856.987 0 1.8.825 1.8 1.856 0 .993 1.725 2.153 3.938 2.153 2.212 0 3.937-1.16 3.937-2.153 0-1.018.8-1.856 1.8-1.856s1.8.825 1.8 1.856v11.344c-.087 3.287-3.4 5.865-7.625 5.865zm-3.938-5.865c0 .992 1.726 2.152 3.938 2.152s3.938-1.16 3.938-2.152v-6.33c-1.138.529-2.488.838-3.938.838-2.325 0-4.363-.773-5.738-2.023-1.375 1.25-3.412 2.023-5.737 2.023-2.275 0-4.313-.76-5.688-1.985-1.374 1.238-3.412 1.985-5.687 1.985-2.325 0-4.363-.773-5.738-2.023-1.375 1.25-3.412 2.023-5.737 2.023-2.275 0-4.312-.76-5.687-1.985-1.375 1.238-3.413 1.985-5.688 1.985-1.45 0-2.8-.309-3.938-.838v6.33c0 .992 1.725 2.152 3.938 2.152 2 0 3.537-.889 3.875-1.791-.013-.116-.013-.245-.013-.361 0-1.019.8-1.857 1.8-1.857h.088c.987 0 1.8.825 1.8 1.857 0 .116 0 .245-.012.36.337.903 1.874 1.792 3.874 1.792 2.213 0 3.938-1.16 3.938-2.152 0-1.019.8-1.857 1.8-1.857s1.8.825 1.8 1.857c0 .992 1.725 2.152 3.938 2.152 2 0 3.537-.889 3.875-1.791-.013-.116-.013-.245-.013-.361 0-1.019.8-1.857 1.8-1.857h.087c.988 0 1.8.825 1.8 1.857 0 .116 0 .245-.012.36.337.903 1.875 1.792 3.875 1.792 2.212 0 3.938-1.16 3.938-2.152 0-1.019.8-1.857 1.8-1.857.924.013 1.724.838 1.724 1.857zm-7.524 17.003c-2.3 0-4.325-.761-5.688-1.986-1.375 1.225-3.4 1.986-5.688 1.986-2.325 0-4.362-.774-5.737-2.024-1.375 1.25-3.412 2.024-5.737 2.024-4.226 0-7.526-2.579-7.526-5.866 0-1.018.8-1.856 1.8-1.856h.088c.987 0 1.8.825 1.8 1.856 0 .103-.012.22-.025.322.313.916 1.9 1.844 3.887 1.844 2.213 0 3.938-1.16 3.938-2.153 0-1.018.8-1.856 1.8-1.856s1.8.825 1.8 1.856c0 .993 1.725 2.153 3.938 2.153 1.962 0 3.524-.902 3.862-1.805-.012-.116-.012-.232-.012-.36 0-1.02.8-1.857 1.8-1.857h.087c.988 0 1.8.825 1.8 1.856 0 .116 0 .232-.013.361.338.903 1.913 1.805 3.863 1.805 2.213 0 3.938-1.16 3.938-2.153 0-1.018.8-1.856 1.8-1.856.987 0 1.8.825 1.8 1.856-.05 3.287-3.35 5.853-7.575 5.853z" fill="#2D527C"/></g><defs><clipPath id="clip0"><path fill="#fff" d="M0 0h64v66H0z"/></clipPath></defs></svg>