<svg width="25" height="25" fill="none" xmlns="http://www.w3.org/2000/svg"><g clip-path="url(#clip0)"><path d="M12.5 0C5.598 0 0 5.598 0 12.5S5.598 25 12.5 25 25 19.402 25 12.5 19.402 0 12.5 0zm7.54 9.151v.435c0 5.342-4.063 10.864-10.863 10.864-2.07 0-4.09-.588-5.854-1.713-.025-.025-.051-.076-.025-.102.025-.051.05-.077.102-.051.281.025.588.051.894.051a7.53 7.53 0 004.448-1.457 3.872 3.872 0 01-3.374-2.684c0-.026 0-.077.026-.102.025-.026.05-.026.076-.026.435.077.87.077 1.278.026a3.874 3.874 0 01-2.735-3.707v-.051c0-.026.026-.051.051-.077.026-.025.052-.025.103 0 .409.23.869.384 1.354.435A3.879 3.879 0 014.064 7.95c0-.69.18-1.355.537-1.943.026-.025.051-.051.077-.051.025 0 .051 0 .077.026 1.891 2.3 4.652 3.732 7.617 3.91a3.884 3.884 0 013.809-4.652c1.048 0 2.07.435 2.786 1.176.818-.179 1.61-.46 2.326-.895a.078.078 0 01.103 0c.025.026.05.077.025.103a3.953 3.953 0 01-1.355 1.917 6.552 6.552 0 001.739-.537c.025-.025.076 0 .102.026a.078.078 0 010 .102c-.486.843-1.125 1.483-1.866 2.02z" fill="#fff"/></g><defs><clipPath id="clip0"><path fill="#fff" d="M0 0h25v25H0z"/></clipPath></defs></svg>