<svg width="14" height="14" fill="none" xmlns="http://www.w3.org/2000/svg"><path d="M13.696 6.372a.998.998 0 00.254-1.029.998.998 0 00-.81-.683l-3.39-.493a.443.443 0 01-.334-.242L7.901.853a.998.998 0 00-.9-.56.998.998 0 00-.901.56L4.584 3.925a.443.443 0 01-.334.242L.86 4.66a.998.998 0 00-.81.683.998.998 0 00.254 1.03l2.452 2.39a.444.444 0 01.128.393l-.578 3.375a.983.983 0 00.219.814c.298.356.82.464 1.237.245l3.032-1.594a.454.454 0 01.412 0l3.032 1.594a.994.994 0 00.467.117 1.007 1.007 0 00.99-1.176l-.58-3.375a.444.444 0 01.129-.393l2.452-2.39z" fill="#E9CE93"/></svg>